<svg width="29" height="22" viewBox="0 0 29 22" fill="none" xmlns="http://www.w3.org/2000/svg">
<path d="M20.0201 2.21304L11.1129 1.59061C10.8668 1.57341 10.624 1.65467 10.4378 1.8165C10.2516 1.97833 10.1374 2.20749 10.1202 2.45357L9.34204 13.5877C9.32511 13.8337 9.40646 14.0764 9.56825 14.2625C9.73005 14.4486 9.95906 14.5629 10.205 14.5804L19.1123 15.2029C19.1343 15.2044 19.1561 15.2052 19.1778 15.2052C19.413 15.2047 19.6394 15.1153 19.8114 14.9547C19.9834 14.7942 20.0883 14.5745 20.105 14.3399L20.8831 3.20574C20.9 2.95973 20.8187 2.71705 20.6569 2.53095C20.4951 2.34485 20.2661 2.23052 20.0201 2.21304H20.0201ZM20.512 3.17984L19.7339 14.314C19.7233 14.4615 19.6547 14.5989 19.5431 14.6959C19.4314 14.793 19.2858 14.8418 19.1382 14.8317L10.231 14.2093C10.0834 14.1988 9.94599 14.1302 9.84891 14.0185C9.75183 13.9069 9.70301 13.7613 9.71316 13.6136L10.4913 2.47952C10.5016 2.33187 10.5702 2.19438 10.6818 2.09728C10.7935 2.00017 10.9392 1.95141 11.0869 1.96173L19.9942 2.5842C20.1418 2.59469 20.2792 2.66329 20.3762 2.77496C20.4733 2.88662 20.5221 3.03223 20.512 3.17984ZM11.1467 17.2554L11.1728 16.8841L17.8561 17.3528L17.8301 17.7241L11.1467 17.2554ZM9.53314 19.0105L9.55918 18.6392L11.0444 18.7434L11.0183 19.1147L9.53314 19.0105ZM12.1315 19.1888L12.1576 18.8175L19.2122 19.3123L19.1862 19.6836L12.1315 19.1888Z" fill="#624C49"/>
<path fill-rule="evenodd" clip-rule="evenodd" d="M24.9668 1.37974C25.074 1.43839 25.1685 1.51772 25.2449 1.61314C25.3217 1.70813 25.379 1.81738 25.4134 1.93464C25.4477 2.05191 25.4584 2.17482 25.4449 2.29626L23.4028 21.1591C23.3781 21.3868 23.2703 21.5974 23.1 21.7506C22.9297 21.9038 22.7089 21.9887 22.4799 21.9893C22.4458 21.9893 22.4118 21.9874 22.378 21.9837L20.7473 21.8072C20.5882 21.9256 20.395 21.9895 20.1967 21.9893C20.1747 21.9893 20.1526 21.9885 20.1304 21.9869L11.8731 21.4098L6.57238 21.9837C6.53853 21.9874 6.5045 21.9893 6.47044 21.9893C6.24141 21.9888 6.02061 21.9038 5.85032 21.7506C5.68004 21.5975 5.57223 21.3869 5.54755 21.1592L3.5054 2.2963C3.47886 2.05107 3.55082 1.80533 3.70544 1.61315C3.86007 1.42097 4.08471 1.29808 4.32994 1.27151L8.74841 0.79316C8.78306 0.5618 8.90353 0.351961 9.08586 0.205391C9.26819 0.0588208 9.49902 -0.0137377 9.73242 0.00215134L21.6088 0.832132C21.775 0.843848 21.935 0.900333 22.0717 0.995598L24.6204 1.27151C24.7419 1.28431 24.8596 1.3211 24.9668 1.37974ZM22.9435 2.93422L22.3983 2.87599L21.5577 14.9055L21.6464 14.9151C21.7192 14.923 21.793 14.9165 21.8633 14.8959C21.9336 14.8753 21.9992 14.841 22.0563 14.7951C22.1134 14.7491 22.1609 14.6924 22.1961 14.6281C22.2312 14.5638 22.2534 14.4932 22.2613 14.4203L23.4382 3.54911C23.4542 3.40197 23.411 3.25452 23.3182 3.13921C23.2254 3.02389 23.0907 2.95016 22.9435 2.93422ZM8.34363 6.53303L8.61485 2.65179L6.00688 2.93417C5.93401 2.94206 5.86341 2.96422 5.79911 2.99939C5.73481 3.03456 5.67807 3.08206 5.63212 3.13916C5.58618 3.19627 5.55193 3.26186 5.53134 3.3322C5.51075 3.40254 5.50421 3.47625 5.51211 3.54911L6.68907 14.4203C6.69695 14.4932 6.71911 14.5638 6.75428 14.6281C6.78945 14.6924 6.83694 14.7491 6.89404 14.7951C6.95114 14.841 7.01673 14.8753 7.08706 14.8959C7.15739 14.9165 7.2311 14.923 7.30396 14.9151L7.76129 14.8656L7.9974 11.4876L8.04344 10.8283L8.2995 7.16453L8.34363 6.53303ZM6.31544 21.5947C6.38578 21.6153 6.45948 21.6218 6.53234 21.6139L9.7726 21.2631L8.25402 21.157C8.00804 21.1395 7.77904 21.0252 7.61725 20.8391C7.45546 20.653 7.3741 20.4103 7.39102 20.1643L7.73497 15.2426L7.344 15.285C7.22255 15.2982 7.09969 15.2873 6.98244 15.2531C6.86518 15.2188 6.75584 15.1617 6.66066 15.0851C6.56548 15.0085 6.48634 14.9139 6.42775 14.8067C6.36916 14.6995 6.33227 14.5818 6.31921 14.4604L5.14221 3.58915C5.12906 3.46772 5.13997 3.34488 5.17429 3.22766C5.20862 3.11044 5.2657 3.00113 5.34228 2.90597C5.41885 2.81081 5.51342 2.73166 5.62058 2.67305C5.72775 2.61444 5.8454 2.5775 5.96684 2.56436L8.64117 2.27482L8.71837 1.1706L4.37003 1.64137C4.29717 1.64925 4.22657 1.67141 4.16226 1.70657C4.09796 1.74174 4.04121 1.78923 3.99526 1.84633C3.94932 1.90343 3.91506 1.96902 3.89447 2.03936C3.87387 2.10969 3.86733 2.1834 3.87521 2.25626L5.91745 21.1191C5.92534 21.192 5.9475 21.2626 5.98267 21.3269C6.01783 21.3912 6.06532 21.4479 6.12242 21.4939C6.17952 21.5398 6.24511 21.5741 6.31544 21.5947ZM20.3724 21.5886C20.442 21.5653 20.5062 21.5285 20.5614 21.4803C20.6169 21.4324 20.6623 21.3738 20.695 21.3082C20.7277 21.2426 20.7471 21.1711 20.752 21.098L22.1006 1.79884C22.1108 1.65124 22.062 1.50564 21.9649 1.39398C21.8678 1.28233 21.7304 1.21373 21.5829 1.20324L9.70647 0.37331C9.69329 0.372411 9.68019 0.371962 9.66717 0.371962C9.52602 0.372228 9.39019 0.425905 9.28699 0.522207C9.18378 0.618509 9.12085 0.7503 9.11083 0.8911L7.76213 20.1902C7.75198 20.3379 7.8008 20.4835 7.89788 20.5951C7.99496 20.7068 8.13237 20.7754 8.27997 20.7859L20.1564 21.6158C20.2295 21.6211 20.3029 21.6118 20.3724 21.5886ZM23.0329 21.1192L25.0751 2.25626C25.083 2.1834 25.0765 2.10969 25.0559 2.03936C25.0353 1.96902 25.001 1.90343 24.9551 1.84633C24.9091 1.78923 24.8524 1.74174 24.7881 1.70657C24.7238 1.67141 24.6532 1.64925 24.5803 1.64137L22.4027 1.40564C22.458 1.53809 22.4817 1.68163 22.4718 1.82483L22.4243 2.5046L22.9833 2.56431C23.1047 2.57743 23.2224 2.61434 23.3296 2.67294C23.4368 2.73155 23.5314 2.81069 23.608 2.90586C23.6846 3.00103 23.7417 3.11036 23.776 3.2276C23.8104 3.34484 23.8213 3.4677 23.8081 3.58915L22.6311 14.4604C22.6181 14.5819 22.5812 14.6996 22.5226 14.8068C22.464 14.914 22.3848 15.0085 22.2897 15.0851C22.1945 15.1617 22.0851 15.2188 21.9679 15.2531C21.8506 15.2874 21.7278 15.2982 21.6063 15.285L21.5317 15.2769L21.1231 21.124C21.1149 21.242 21.0842 21.3574 21.0327 21.4639L22.418 21.6139C22.5651 21.6298 22.7126 21.5867 22.8279 21.4939C22.9432 21.4011 23.017 21.2663 23.0329 21.1192Z" fill="#624C49"/>
</svg>
