<svg width="29" height="22" viewBox="0 0 29 22" fill="none" xmlns="http://www.w3.org/2000/svg">
<path fill-rule="evenodd" clip-rule="evenodd" d="M27.1222 10.0502L27.2212 10.1493C27.3182 10.4524 27.482 10.7466 27.6472 11.0433C27.9319 11.5549 28.2209 12.0741 28.1791 12.6595C27.8698 13.4326 27.3 14.032 26.7406 14.6204C26.7026 14.6604 26.6646 14.7004 26.6267 14.7403C26.4616 14.9055 26.1643 14.9715 25.9661 14.7734C25.7459 14.5311 25.4964 14.3183 25.2468 14.1054C25.122 13.999 24.9973 13.8926 24.8762 13.7825L24.8101 13.7164C24.3147 13.8155 23.7862 13.7825 23.2908 13.6504C22.8284 13.5513 22.399 13.3531 22.0026 13.0558C22.1678 14.344 22.2669 15.6651 21.9035 16.9203C21.8913 16.9611 21.876 17.0162 21.8577 17.0817C21.7288 17.5456 21.454 18.5343 21.0778 18.7369C21.0778 18.7505 21.0835 18.7642 21.0901 18.7803C21.0995 18.8029 21.1108 18.8303 21.1108 18.869C21.0999 18.9896 21.1071 19.1175 21.1144 19.2467C21.1291 19.5065 21.1441 19.7714 21.0117 19.992C20.543 20.4021 19.8925 20.5264 19.2905 20.6415C19.2137 20.6561 19.1377 20.6707 19.063 20.6856C16.784 20.9829 14.4719 20.9168 12.1599 20.8507C11.9804 20.841 11.7983 20.8325 11.6145 20.8239C9.93818 20.7456 8.11883 20.6607 6.80914 19.5296C6.67703 19.3314 6.71006 19.1002 6.74308 18.902C6.75583 18.8638 6.76366 18.8108 6.77227 18.7525C6.78596 18.6598 6.80161 18.5538 6.84217 18.4726C5.38888 16.9203 5.45494 14.7073 5.98341 12.7255C5.86311 12.8258 5.71847 12.9139 5.59382 12.9898C5.51312 13.0389 5.4408 13.0829 5.38888 13.1219C4.9595 13.4192 4.49709 13.5513 4.00165 13.4852C3.94222 13.6239 3.71645 13.715 3.5025 13.8014C3.35972 13.859 3.22221 13.9146 3.14289 13.9806C3.03142 14.0271 2.91473 14.0997 2.79501 14.1741C2.48906 14.3644 2.16337 14.5669 1.85475 14.377C0.830842 13.7825 0.236315 12.7586 0.0381389 11.6356C0.00510965 11.5035 -0.0279196 11.3053 0.0381389 11.1732C0.0381389 11.1401 0.0711683 11.0741 0.104198 11.041C0.368432 10.7768 0.632666 10.5126 0.863871 10.2483C0.962959 10.1823 1.02902 10.1823 1.09508 10.1823C0.962959 9.05928 1.32628 7.90326 2.18504 7.14359C2.45959 6.89649 2.76267 6.66651 3.06819 6.43468C3.49777 6.10871 3.93218 5.77907 4.29892 5.39303C5.45494 4.03883 6.90823 2.84978 8.52667 2.05707C9.06266 1.78908 9.6346 1.61093 10.216 1.42986C10.4228 1.36545 10.6307 1.30067 10.8387 1.23134C10.8387 1.19831 10.8717 1.19831 10.9048 1.19831C10.9378 1.0662 11.0369 1.00014 11.136 1.00014C12.5893 1.42952 14.1747 1.46255 15.661 1.16528C15.7931 1.13225 15.9913 1.09923 16.0904 1.16528C16.1895 1.00014 16.4207 1.00014 16.5858 1.00014C18.1712 1.09923 19.6575 1.95799 20.9457 2.88281C21.3571 3.20527 21.7919 3.52399 22.2328 3.84715C24.4111 5.44387 26.7376 7.14918 27.1222 9.95108V10.0502ZM16.1564 1.8589C16.1234 1.72678 16.0904 1.59466 16.1234 1.49558C15.628 1.95799 12.4572 1.8589 12.0608 1.72678C11.7966 1.69375 11.5654 1.62769 11.3342 1.56164C11.3121 1.60567 11.2901 1.62035 11.2681 1.63503C11.2571 1.64237 11.2461 1.64971 11.2351 1.66072C11.2237 1.68339 11.2124 1.70509 11.2014 1.72614C11.1483 1.82781 11.103 1.9146 11.103 2.02405C10.8387 3.60945 12.8865 4.53427 14.2077 4.23701C15.2977 4.07186 16.2885 2.98189 16.1564 1.8589ZM16.4207 3.11401C15.8922 4.30307 14.505 4.96365 13.2168 4.76548C11.7966 4.5673 10.2442 3.31219 10.6736 1.79284C10.5219 1.83075 10.3812 1.87953 10.2451 1.92671C10.144 1.96175 10.0455 1.99589 9.94693 2.02405C9.92903 2.02405 9.9145 2.03122 9.90295 2.04457L9.45149 2.25525C7.80002 2.88281 6.41279 4.0058 5.19071 5.22789C4.77404 5.81697 4.20112 6.25605 3.63236 6.69194C2.89363 7.2581 2.16192 7.81887 1.78869 8.69596C1.09508 10.5126 2.21807 13.0228 4.33195 13.0889C4.81512 13.0083 5.21104 12.7096 5.59061 12.4233C5.67808 12.3573 5.76469 12.292 5.85129 12.2301C5.91735 12.164 6.01644 12.164 6.11553 12.1971C6.13204 12.131 6.14856 12.0732 6.16507 12.0154C6.18159 11.9576 6.1981 11.8998 6.21462 11.8337C6.3959 11.3201 6.50118 10.7788 6.6063 10.2383C6.73101 9.59715 6.8555 8.9571 7.10641 8.36567C7.37064 8.06841 7.70093 8.43173 7.46973 8.72899C7.33493 9.22776 7.22213 9.73754 7.10889 10.2493C6.94466 10.9915 6.7795 11.738 6.54491 12.4613C5.88432 14.41 5.71918 16.8872 7.37064 18.4066C7.56882 18.5387 7.4367 18.8029 7.23852 18.836C7.23371 18.8601 7.22889 18.8834 7.22417 18.9063C7.19656 19.0404 7.17247 19.1573 7.17247 19.2984C8.80046 20.4176 11.0162 20.4202 13.0803 20.4226C13.6964 20.4233 14.2989 20.424 14.8683 20.4544C15.175 20.4484 15.4839 20.4467 15.794 20.4451C17.187 20.4377 18.604 20.4302 19.9548 20.025C20.6213 19.8306 20.6107 19.7063 20.5708 19.2397C20.5632 19.1513 20.5546 19.0507 20.5493 18.935C20.5493 18.836 20.6154 18.7699 20.6814 18.7369C20.5824 18.5717 20.7145 18.3735 20.8136 18.2745C21.7384 16.656 21.6393 14.7073 21.4081 12.9237C21.3635 12.255 21.2253 11.5997 21.0868 10.9426C20.9174 10.1393 20.7475 9.33356 20.7475 8.49779C20.7475 8.16749 21.2429 8.16749 21.2429 8.49779C21.2219 9.29758 21.3886 10.0706 21.5551 10.8423C21.6498 11.2817 21.7445 11.7207 21.8044 12.164C21.8044 12.2136 21.8127 12.2714 21.821 12.3292C21.8292 12.387 21.8375 12.4448 21.8375 12.4943C22.0072 12.5406 22.1696 12.6517 22.3384 12.7671C22.5309 12.8988 22.7316 13.036 22.9605 13.0889C23.6211 13.287 24.4138 13.3861 25.1404 13.1879C25.232 13.1487 25.3339 13.0629 25.44 12.9735C25.6019 12.8371 25.7735 12.6925 25.9331 12.6925C25.9503 12.5546 26.0666 12.4257 26.1831 12.2964C26.2899 12.1779 26.397 12.0592 26.4285 11.9328C27.0231 10.7107 26.6267 9.32352 26.0322 8.16749C25.6493 7.40173 25.0173 6.81712 24.3988 6.24492C24.2703 6.12607 24.1424 6.00776 24.0174 5.88847C23.6757 5.62564 23.3183 5.33796 22.9479 5.03975C21.4562 3.83899 19.7523 2.46744 18.0061 1.8589L17.4776 1.66072C17.1803 1.59466 16.8831 1.56164 16.5858 1.52861C16.784 2.05707 16.6519 2.6516 16.4207 3.11401ZM0.46752 11.4374C0.599637 12.4613 1.16113 13.4522 2.08596 13.9806C2.28413 13.8816 2.49057 13.7742 2.697 13.6669C2.90343 13.5595 3.10986 13.4522 3.30804 13.3531C2.15201 12.9237 1.39234 11.8668 1.12811 10.6777C1.0711 10.7347 1.00621 10.8114 0.936176 10.8942C0.803331 11.0512 0.65194 11.2302 0.500549 11.3383C0.500549 11.3713 0.500549 11.4044 0.46752 11.4374ZM25.7019 13.9641C25.8588 14.0963 26.0157 14.2284 26.1643 14.377C26.7258 13.8155 27.3203 13.1879 27.5846 12.4283C27.5846 12.0767 27.4127 11.7442 27.2432 11.4163C27.1898 11.3129 27.1366 11.21 27.0891 11.1071V11.0741C27.0231 11.6686 26.7919 12.2301 26.3625 12.6925C26.3295 12.7916 26.1973 12.8907 26.0982 12.8907C26.0982 12.9567 26.0652 13.0228 25.9992 13.0558C25.768 13.287 25.5037 13.4522 25.2395 13.5513C25.3881 13.6999 25.545 13.832 25.7019 13.9641Z" fill="#624C49"/>
</svg>
