<svg width="29" height="25" viewBox="0 0 29 25" fill="none" xmlns="http://www.w3.org/2000/svg">
<path d="M22.7642 14.2831L22.764 14.2832C22.4916 13.3749 22.0421 12.82 21.536 12.198C21.0134 11.5562 20.4562 10.8711 19.981 9.6375L19.9809 9.63735C19.5297 8.464 19.2214 7.23407 19.0661 5.98014C19.0557 5.89716 18.9938 5.8282 18.9103 5.80909C18.8233 5.79104 18.7417 5.82748 18.6978 5.89901L18.6976 5.89932C17.835 7.30005 17.5297 8.58996 17.745 9.74555L17.745 9.7456C17.8538 10.3307 18.0672 10.749 18.2675 11.1419L18.2676 11.1421L18.2678 11.1424L18.2748 11.1561C18.486 11.5686 18.6826 11.9525 18.6673 12.481M22.7642 14.2831L18.4206 12.4739M22.7642 14.2831C23.1582 15.6008 23.0013 16.9012 22.7015 17.9437C22.4014 18.9868 21.9628 19.7556 21.8157 19.9966L21.8155 19.9969C20.1693 22.7022 17.0222 23.8489 14.2848 23.8489C13.9451 23.8489 13.6115 23.8315 13.2893 23.7968L13.2893 23.7968C10.1254 23.4567 6.5903 21.5393 5.70793 18.0914L5.70791 18.0913C5.07892 15.6367 6.02428 13.4692 6.65502 12.3848L6.66242 12.3721L6.66826 12.3586C6.90919 11.8007 7.20087 10.8385 7.09808 9.67742L7.09805 9.6771C7.04427 9.07845 6.89115 8.49225 6.64516 7.93497L6.41942 8.03462M22.7642 14.2831L6.44172 12.2608C6.67155 11.7286 6.95047 10.8081 6.85229 9.69918C6.80096 9.12796 6.65482 8.56791 6.41942 8.03462M18.6673 12.481L18.4206 12.4739M18.6673 12.481C18.6673 12.481 18.6673 12.481 18.6673 12.481L18.4206 12.4739M18.6673 12.481C18.649 13.1144 18.4305 13.7476 18.0442 14.3123L17.8405 14.173C18.2031 13.6431 18.4039 13.0552 18.4206 12.4739M6.41942 8.03462C6.35025 7.87733 6.37702 7.69435 6.48859 7.56382C6.60015 7.43328 6.77753 7.37862 6.94265 7.42324C8.77569 7.91526 9.78761 8.62595 10.0375 9.59545M6.41942 8.03462L6.6453 7.93528C6.61415 7.86447 6.62634 7.78244 6.67617 7.72414L6.67617 7.72413C6.72584 7.66602 6.80515 7.64169 6.87827 7.66145L6.87868 7.66156C8.70082 8.15066 9.58491 8.8289 9.79848 9.65671M10.0375 9.59545L9.79839 9.65634C9.79842 9.65646 9.79845 9.65658 9.79848 9.65671M10.0375 9.59545L9.79857 9.65704C9.79854 9.65693 9.79851 9.65682 9.79848 9.65671M10.0375 9.59545C10.129 9.95469 10.09 10.257 10.052 10.5482L9.79848 9.65671M9.79848 9.65671C9.87694 9.96507 9.84536 10.2244 9.80733 10.5163L9.80725 10.517L9.80572 10.529C9.77119 10.7994 9.73182 11.1078 9.80199 11.5252L9.80203 11.5254C9.85423 11.8338 9.95474 12.1383 10.1015 12.4295C10.2264 12.6789 10.456 12.7266 10.5468 12.7351C10.6417 12.7448 10.8688 12.7371 11.0311 12.5221M11.0311 12.5221C11.0311 12.5221 11.0311 12.5221 11.0311 12.5221L10.8341 12.3734L11.0311 12.5221Z" stroke="#624C49" stroke-width="0.493513"/>
</svg>
