<svg width="1560" height="760" viewBox="0 0 1560 760" fill="none" xmlns="http://www.w3.org/2000/svg">
<path d="M780.4 370L780.4 390H779.6L779.6 370L780.4 370Z" fill="#624C49"/>
<path d="M790 380.4L770 380.4L770 379.6L790 379.6V380.4Z" fill="#624C49"/>
<path d="M787.356 373.212L773.214 387.355L772.648 386.789L786.791 372.647L787.356 373.212Z" fill="#624C49"/>
<path d="M786.787 387.356L772.645 373.214L773.211 372.648L787.353 386.791L786.787 387.356Z" fill="#624C49"/>
<rect opacity="0.35" x="0.25" y="379.25" width="749.5" height="0.5" stroke="#624C49" stroke-width="0.5" stroke-dasharray="6 6"/>
<rect opacity="0.35" x="810.25" y="379.25" width="749.5" height="0.5" stroke="#624C49" stroke-width="0.5" stroke-dasharray="6 6"/>
<rect opacity="0.35" x="779.25" y="349.75" width="349.5" height="0.500008" transform="rotate(-90 779.25 349.75)" stroke="#624C49" stroke-width="0.500008" stroke-dasharray="6 6"/>
<rect opacity="0.35" x="779.25" y="759.75" width="349.5" height="0.500008" transform="rotate(-90 779.25 759.75)" stroke="#624C49" stroke-width="0.500008" stroke-dasharray="6 6"/>
</svg>
