<svg width="177" height="86" viewBox="0 0 177 86" fill="none" xmlns="http://www.w3.org/2000/svg">
<path d="M0.141051 34.9156H0.493677C0.822796 34.9156 1.12841 34.8095 1.41051 34.5973C1.69261 34.3851 1.92769 34.1376 2.11576 33.8547C2.35084 33.5718 2.5154 33.2712 2.60944 32.9529C2.70347 32.5993 2.75049 32.281 2.75049 31.9981V3.77878C2.75049 3.53124 2.70347 3.24834 2.60944 2.93008C2.5154 2.61181 2.35084 2.31123 2.11576 2.02833C1.92769 1.71006 1.6691 1.46253 1.33998 1.28571C1.05788 1.07354 0.728762 0.96745 0.352627 0.96745H0V0.437012H11.5662C15.9387 0.437012 19.3474 1.16195 21.7923 2.61181C24.2842 4.06168 25.5302 5.98894 25.5302 8.3936C25.5302 9.41912 25.2951 10.3385 24.8249 11.1519C24.3547 11.9652 23.7435 12.6902 22.9913 13.3267C22.286 13.9632 21.5102 14.5113 20.6639 14.971C19.8176 15.3954 19.0183 15.749 18.2661 16.0319C20.2408 16.3148 21.8864 16.7922 23.2028 17.4641C24.5193 18.136 25.5772 18.914 26.3765 19.798C27.2228 20.6467 27.8105 21.5662 28.1396 22.5563C28.4687 23.5465 28.6333 24.519 28.6333 25.4737C28.6333 27.3126 28.1866 28.8686 27.2933 30.1416C26.4 31.3793 25.201 32.4048 23.6965 33.2182C22.239 33.9961 20.5464 34.5619 18.6187 34.9156C16.738 35.2692 14.7868 35.446 12.7651 35.446H0.141051V34.9156ZM23.8376 25.792C23.4614 23.0691 22.239 20.965 20.1702 19.4798C18.1015 17.9945 15.1865 17.2519 11.4251 17.2519H7.47568V33.6955H11.5662C15.3745 33.6955 18.3601 33.059 20.5229 31.786C22.7327 30.4776 23.8376 28.6741 23.8376 26.3755V25.792ZM20.946 8.87099C20.805 6.81996 19.8411 5.19328 18.0545 3.99095C16.3149 2.78862 13.964 2.18746 11.002 2.18746H7.47568V15.5545H11.143C13.1177 15.5545 14.7163 15.36 15.9387 14.971C17.2082 14.5821 18.219 14.087 18.9713 13.4858C19.7236 12.8493 20.2408 12.1597 20.5229 11.4171C20.805 10.6745 20.946 9.94955 20.946 9.2423V8.87099Z" fill="white"/>
<path d="M35.6335 0.437012H45.7186V0.96745H45.366C45.0368 0.96745 44.7312 1.07354 44.4491 1.28571C44.167 1.46253 43.9319 1.69238 43.7439 1.97528C43.5558 2.22282 43.3913 2.52341 43.2502 2.87703C43.1562 3.1953 43.1091 3.4782 43.1091 3.72573V31.9981C43.1091 32.281 43.1562 32.5993 43.2502 32.9529C43.3442 33.2712 43.4853 33.5718 43.6734 33.8547C43.9084 34.1376 44.1435 34.3851 44.3786 34.5973C44.6607 34.8095 44.9898 34.9156 45.366 34.9156H45.7186V35.446H35.6335V34.9156H35.9861C36.3622 34.9156 36.6913 34.8272 36.9734 34.6503C37.2556 34.4382 37.4906 34.1906 37.6787 33.9077C37.9138 33.5895 38.0784 33.2712 38.1724 32.9529C38.2664 32.5993 38.3134 32.281 38.3134 31.9981V3.72573C38.3134 3.4782 38.2664 3.1953 38.1724 2.87703C38.0784 2.55877 37.9138 2.25819 37.6787 1.97528C37.4906 1.69238 37.2556 1.46253 36.9734 1.28571C36.6913 1.07354 36.3622 0.96745 35.9861 0.96745H35.6335V0.437012Z" fill="white"/>
<path d="M62.9383 34.9156H63.291V35.446H53.2058V34.9156H53.5585C53.9346 34.9156 54.2637 34.8095 54.5458 34.5973C54.8279 34.3851 55.063 34.1376 55.2511 33.8547C55.4862 33.5718 55.6507 33.2712 55.7448 32.9529C55.8388 32.5993 55.8858 32.281 55.8858 31.9981V3.72573C55.8858 3.4782 55.8388 3.1953 55.7448 2.87703C55.6507 2.55877 55.4862 2.25819 55.2511 1.97528C55.063 1.69238 54.8279 1.46253 54.5458 1.28571C54.2637 1.07354 53.9581 0.96745 53.629 0.96745H53.2764V0.437012H63.3615V0.96745H63.0089C62.6327 0.96745 62.3036 1.07354 62.0215 1.28571C61.7394 1.46253 61.4808 1.69238 61.2457 1.97528C61.0577 2.25819 60.8931 2.55877 60.7521 2.87703C60.658 3.1953 60.611 3.4782 60.611 3.72573V16.0319L78.5244 2.66486C78.8065 2.41732 78.9476 2.13442 78.9476 1.81615C78.9476 1.25035 78.6655 0.96745 78.1013 0.96745H77.7487V0.437012H86.3527V0.96745H86.0001C85.3419 0.96745 84.6601 1.14426 83.9549 1.49789C83.2496 1.85151 82.5444 2.29355 81.8391 2.82399L67.0288 13.9102L82.6149 31.6799C82.6619 31.7506 82.8735 31.9628 83.2496 32.3164C83.6258 32.67 84.0724 33.0413 84.5896 33.4303C85.1538 33.8193 85.765 34.1729 86.4233 34.4912C87.1285 34.7741 87.8338 34.9156 88.539 34.9156V35.446H86.8464C85.4359 35.446 84.237 35.393 83.2496 35.2869C82.3093 35.1454 81.4865 34.9332 80.7812 34.6503C80.076 34.3674 79.4413 34.0138 78.8771 33.5895C78.3599 33.1651 77.8192 32.6347 77.255 31.9981L63.5731 16.4563L60.611 18.7372V31.9981C60.611 32.281 60.658 32.5816 60.7521 32.8999C60.8931 33.2182 61.0577 33.5364 61.2457 33.8547C61.4338 34.1376 61.6689 34.3851 61.951 34.5973C62.2331 34.8095 62.5622 34.9156 62.9383 34.9156Z" fill="white"/>
<path d="M94.1392 0.437012H104.224V0.96745H103.872C103.543 0.96745 103.237 1.07354 102.955 1.28571C102.673 1.46253 102.438 1.69238 102.25 1.97528C102.062 2.22282 101.897 2.52341 101.756 2.87703C101.662 3.1953 101.615 3.4782 101.615 3.72573V31.9981C101.615 32.281 101.662 32.5993 101.756 32.9529C101.85 33.2712 101.991 33.5718 102.179 33.8547C102.414 34.1376 102.649 34.3851 102.884 34.5973C103.166 34.8095 103.496 34.9156 103.872 34.9156H104.224V35.446H94.1392V34.9156H94.4918C94.8679 34.9156 95.1971 34.8272 95.4792 34.6503C95.7613 34.4382 95.9963 34.1906 96.1844 33.9077C96.4195 33.5895 96.5841 33.2712 96.6781 32.9529C96.7721 32.5993 96.8191 32.281 96.8191 31.9981V3.72573C96.8191 3.4782 96.7721 3.1953 96.6781 2.87703C96.5841 2.55877 96.4195 2.25819 96.1844 1.97528C95.9963 1.69238 95.7613 1.46253 95.4792 1.28571C95.1971 1.07354 94.8679 0.96745 94.4918 0.96745H94.1392V0.437012Z" fill="white"/>
<path d="M119.117 34.9156H119.469V35.446H111.641V34.9156H111.994C112.323 34.9156 112.628 34.8095 112.91 34.5973C113.24 34.3851 113.498 34.1376 113.686 33.8547C113.874 33.5718 114.015 33.2712 114.109 32.9529C114.25 32.5993 114.321 32.281 114.321 31.9981V3.72573C114.321 3.4782 114.274 3.1953 114.18 2.87703C114.133 2.55877 114.015 2.25819 113.827 1.97528C113.639 1.69238 113.381 1.46253 113.052 1.28571C112.722 1.07354 112.323 0.96745 111.853 0.96745H111.5V0.437012H118.623L144.224 30.7781V3.72573C144.224 3.4782 144.153 3.1953 144.012 2.87703C143.918 2.55877 143.754 2.25819 143.518 1.97528C143.33 1.69238 143.095 1.46253 142.813 1.28571C142.531 1.07354 142.202 0.96745 141.826 0.96745H141.473V0.437012H149.372V0.96745H149.019C148.643 0.96745 148.314 1.07354 148.032 1.28571C147.75 1.46253 147.491 1.69238 147.256 1.97528C147.068 2.25819 146.927 2.55877 146.833 2.87703C146.739 3.1953 146.692 3.4782 146.692 3.72573V35.446H142.32L116.789 4.99879V31.9981C116.789 32.281 116.836 32.5993 116.93 32.9529C117.024 33.2712 117.166 33.5718 117.354 33.8547C117.589 34.1376 117.847 34.3851 118.129 34.5973C118.411 34.8095 118.741 34.9156 119.117 34.9156Z" fill="white"/>
<path d="M156.984 0.437012H167.069V0.96745H166.716C166.387 0.96745 166.082 1.07354 165.799 1.28571C165.517 1.46253 165.282 1.69238 165.094 1.97528C164.906 2.22282 164.742 2.52341 164.601 2.87703C164.507 3.1953 164.46 3.4782 164.46 3.72573V31.9981C164.46 32.281 164.507 32.5993 164.601 32.9529C164.695 33.2712 164.836 33.5718 165.024 33.8547C165.259 34.1376 165.494 34.3851 165.729 34.5973C166.011 34.8095 166.34 34.9156 166.716 34.9156H167.069V35.446H156.984V34.9156H157.336C157.713 34.9156 158.042 34.8272 158.324 34.6503C158.606 34.4382 158.841 34.1906 159.029 33.9077C159.264 33.5895 159.429 33.2712 159.523 32.9529C159.617 32.5993 159.664 32.281 159.664 31.9981V3.72573C159.664 3.4782 159.617 3.1953 159.523 2.87703C159.429 2.55877 159.264 2.25819 159.029 1.97528C158.841 1.69238 158.606 1.46253 158.324 1.28571C158.042 1.07354 157.713 0.96745 157.336 0.96745H156.984V0.437012Z" fill="white"/>
<path d="M80.6274 60.3139C79.943 61.146 79.285 61.8827 78.6533 62.5241C78.0216 63.1482 77.3811 63.6855 76.7319 64.1362C76.1352 64.5696 75.5211 64.9336 74.8894 65.2283C74.2752 65.5057 73.626 65.731 72.9416 65.9044C72.2573 66.0777 71.529 66.199 70.7569 66.2684C69.9849 66.3551 69.1426 66.3984 68.2301 66.3984C67.1246 66.3984 65.8524 66.2337 64.4135 65.9044C62.9747 65.575 61.4568 65.185 59.86 64.7343C59.0177 64.9596 57.9912 65.159 56.7804 65.3323C55.5872 65.5057 54.3413 65.627 53.0428 65.6963C51.7443 65.783 50.4545 65.809 49.1736 65.7743C47.8926 65.7397 46.7433 65.6183 45.7255 65.4103C44.7253 65.185 43.9093 64.8729 43.2776 64.4743C42.6459 64.0756 42.3301 63.5555 42.3301 62.9141C42.3301 62.6541 42.4178 62.3768 42.5933 62.0821C42.7688 61.7701 43.0407 61.484 43.4092 61.224C43.7777 60.964 44.2515 60.7473 44.8306 60.574C45.4272 60.4006 46.1379 60.3139 46.9626 60.3139C47.682 60.3139 48.5594 60.4006 49.5947 60.574C50.6476 60.73 51.7882 60.938 53.0165 61.198C54.2448 61.458 55.5258 61.7441 56.8594 62.0561C58.2105 62.3681 59.5441 62.6715 60.8602 62.9661C61.9832 62.3594 63.0097 61.7007 63.9398 60.99C64.8873 60.2793 65.7998 59.4819 66.6772 58.5978C67.5545 57.7138 68.4319 56.7257 69.3093 55.6336C70.1867 54.5242 71.1342 53.2761 72.152 51.8893C72.9065 50.8493 73.661 49.8265 74.4156 48.8211C75.1877 47.7984 75.9598 46.793 76.7319 45.8049C76.0826 45.8916 75.4421 45.9609 74.8104 46.0129C74.1962 46.0649 73.5821 46.0909 72.9679 46.0909C71.0377 46.0909 69.1952 45.8656 67.4405 45.4149C65.6857 44.9642 64.1328 44.3228 62.7816 43.4907C61.448 42.6587 60.3776 41.6619 59.5704 40.5005C58.7808 39.3218 58.386 38.0043 58.386 36.5482C58.386 35.4388 58.5966 34.4074 59.0177 33.454C59.4564 32.4833 60.0442 31.6079 60.7812 30.8278C61.5182 30.0304 62.378 29.3284 63.3607 28.7217C64.3434 28.0976 65.3874 27.5776 66.4929 27.1615C67.5984 26.7455 68.7302 26.4335 69.8883 26.2255C71.0465 26.0001 72.1783 25.8875 73.2838 25.8875C74.4946 25.8875 75.5913 25.9741 76.5739 26.1475C77.5566 26.3208 78.4164 26.5028 79.1534 26.6935C79.9957 26.9362 80.7502 27.2049 81.417 27.4996C81.417 27.6036 81.3819 27.6989 81.3117 27.7856C81.2415 27.8723 81.1363 27.9156 80.9959 27.9156C80.3291 27.6382 79.6009 27.3869 78.8112 27.1615C78.1444 26.9709 77.3636 26.7975 76.4686 26.6415C75.5913 26.4682 74.6525 26.3815 73.6523 26.3815C72.7398 26.3815 71.7835 26.4682 70.7833 26.6415C69.8006 26.7975 68.8267 27.0489 67.8616 27.3956C66.8965 27.7249 65.9753 28.1583 65.0979 28.6957C64.2381 29.2157 63.4748 29.8397 62.808 30.5678C62.1587 31.2958 61.641 32.1279 61.255 33.064C60.869 33.9827 60.6759 35.0141 60.6759 36.1582C60.6759 37.649 60.9391 38.9317 61.4656 40.0065C62.0095 41.0639 62.7202 41.9566 63.5976 42.6847C64.4925 43.4127 65.519 43.9848 66.6772 44.4008C67.8353 44.7995 69.0373 45.0855 70.2832 45.2589C71.5466 45.4149 72.8012 45.4755 74.0471 45.4409C75.3105 45.3889 76.4862 45.2675 77.5741 45.0768C78.627 43.6901 79.6009 42.3726 80.4958 41.1246C81.3907 39.8765 82.1979 38.7584 82.9173 37.7703C84.1106 36.2102 85.3652 34.7108 86.6813 33.272C88.0149 31.8332 89.3836 30.5678 90.7874 29.4757C92.1912 28.3836 93.6125 27.5169 95.0514 26.8755C96.5078 26.2168 97.9467 25.8875 99.3681 25.8875C99.9471 25.8875 100.421 25.9568 100.789 26.0955C101.175 26.2168 101.474 26.3902 101.684 26.6155C101.912 26.8409 102.062 27.0922 102.132 27.3696C102.22 27.6469 102.263 27.9243 102.263 28.2016C102.246 29.311 101.921 30.4551 101.29 31.6339C100.675 32.8126 99.8331 33.974 98.7627 35.1181C97.7098 36.2622 96.4727 37.3716 95.0514 38.4464C93.6476 39.5038 92.1561 40.4745 90.5768 41.3586C89.0151 42.2253 87.4095 42.9794 85.76 43.6207C84.1281 44.2621 82.5488 44.7215 81.0222 44.9988C80.4431 45.9869 79.8641 46.9576 79.285 47.9111C78.7059 48.8645 78.1532 49.7659 77.6268 50.6152C77.1003 51.4646 76.6002 52.2447 76.1265 52.9554C75.6702 53.6661 75.2579 54.2642 74.8894 54.7495C74.0471 55.8936 73.1785 56.9077 72.2836 57.7918C71.3887 58.6585 70.4586 59.4386 69.4935 60.1319C68.5284 60.8253 67.5194 61.4494 66.4666 62.0041C65.4137 62.5414 64.3083 63.0355 63.1501 63.4862C63.1501 63.5382 63.1852 63.5642 63.2554 63.5642C63.4309 63.5815 63.6502 63.6162 63.9134 63.6682C64.1942 63.7029 64.4837 63.7462 64.782 63.7982C65.0979 63.8502 65.405 63.9109 65.7033 63.9802C66.0191 64.0322 66.2823 64.0669 66.4929 64.0842C67.1071 64.1709 67.6686 64.2402 68.1775 64.2922C68.7039 64.3269 69.0987 64.3442 69.3619 64.3442C70.5902 64.3442 71.687 64.2922 72.6521 64.1882C73.6172 64.0842 74.5121 63.8849 75.3368 63.5902C76.1791 63.2955 76.9775 62.8795 77.7321 62.3421C78.4866 61.7874 79.2675 61.068 80.0746 60.1839L80.6274 60.3139ZM81.2591 44.3748C82.0312 44.1841 82.9086 43.8981 83.8912 43.5167C84.8914 43.1354 85.9443 42.6847 87.0498 42.1646C88.1552 41.6446 89.2783 41.0552 90.4189 40.3965C91.577 39.7378 92.6913 39.0357 93.7617 38.2904C94.8496 37.545 95.8673 36.7649 96.8149 35.9502C97.7625 35.1355 98.5784 34.3121 99.2628 33.48C99.9647 32.6306 100.509 31.7812 100.895 30.9318C101.281 30.0651 101.456 29.2157 101.421 28.3836C101.404 27.9676 101.298 27.6556 101.105 27.4476C100.912 27.2222 100.684 27.0662 100.421 26.9795C100.158 26.8755 99.8857 26.8149 99.6049 26.7975C99.3417 26.7802 99.1136 26.7715 98.9206 26.7715C97.6747 26.7715 96.385 27.1442 95.0514 27.8896C93.7178 28.6176 92.4017 29.5884 91.1032 30.8018C89.8047 32.0152 88.5588 33.402 87.3656 34.9621C86.1899 36.5222 85.1195 38.117 84.1544 39.7465C83.7508 40.3878 83.2771 41.1246 82.7331 41.9566C82.2067 42.7887 81.7153 43.5947 81.2591 44.3748ZM58.0701 64.1622C58.0701 64.1449 58.0614 64.1276 58.0438 64.1102H58.0175C57.8596 63.9889 57.5174 63.8242 56.991 63.6162C56.4821 63.4082 55.8504 63.1915 55.0958 62.9661C54.3413 62.7235 53.5166 62.4894 52.6217 62.2641C51.7267 62.0214 50.823 61.8221 49.9106 61.666C48.9981 61.4927 48.1207 61.3714 47.2785 61.302C46.4362 61.2154 45.6904 61.2067 45.0412 61.276C44.3919 61.328 43.883 61.4754 43.5145 61.7181C43.1636 61.9607 43.0144 62.3161 43.0671 62.7841C43.1022 63.0615 43.2689 63.3128 43.5672 63.5382C43.8655 63.7635 44.234 63.9715 44.6727 64.1622C45.1289 64.3356 45.629 64.4916 46.173 64.6303C46.7345 64.7689 47.2872 64.8816 47.8312 64.9683C48.3752 65.055 48.884 65.1243 49.3578 65.1763C49.8492 65.211 50.2528 65.2283 50.5686 65.2283C51.3231 65.2283 52.0689 65.211 52.8059 65.1763C53.5604 65.1243 54.315 65.029 55.0695 64.8903C55.7363 64.7863 56.3417 64.6563 56.8857 64.5003C57.4472 64.3442 57.842 64.2316 58.0701 64.1622Z" fill="white"/>
<path d="M95.9326 47.703C95.9326 48.3964 95.3799 48.8905 94.2744 49.1851C93.3093 49.0811 92.8267 48.6738 92.8267 47.9631C92.8267 46.8363 93.3619 46.2729 94.4323 46.2729C95.4325 46.2729 95.9326 46.7496 95.9326 47.703ZM91.458 54.4635C91.458 54.7929 91.2913 55.1396 90.9579 55.5036L84.2723 62.7321C84.0442 62.9748 83.9302 63.2175 83.9302 63.4602C83.9302 63.7549 84.1495 63.9022 84.5882 63.9022C85.0269 63.9022 85.4743 63.7549 85.9306 63.4602C86.9834 62.5934 88.4925 61.3454 90.4578 59.7159C90.4754 59.6986 90.5456 59.6726 90.6684 59.6379C90.8614 59.6726 90.9579 59.7766 90.9579 59.9499C90.9579 60.0713 89.9314 60.964 87.8783 62.6281C85.8253 64.2749 84.5619 65.2283 84.0881 65.4883C83.7021 65.731 83.1493 65.8524 82.4299 65.8524C81.3068 65.8524 80.7453 65.159 80.7453 63.7722C80.7453 63.1135 80.9471 62.5501 81.3507 62.0821L86.0095 56.7777C82.9738 59.0659 81.4297 60.2099 81.377 60.2099C81.184 60.2099 81.0875 60.1059 81.0875 59.8979C81.0875 59.8286 81.1313 59.7679 81.2191 59.7159L88.0626 54.4895C88.3083 54.3162 88.9751 54.2295 90.063 54.2295H91.1422C91.3527 54.2295 91.458 54.3075 91.458 54.4635Z" fill="white"/>
<path d="M108.816 59.8719C108.816 59.9586 108.79 60.0453 108.737 60.1319L103.473 64.4482C102.508 65.2456 101.622 65.6443 100.815 65.6443C99.5337 65.6443 98.8932 64.8729 98.8932 63.3302C98.8932 62.7928 99.1126 62.2988 99.5513 61.8481L105.131 56.0496C105.43 55.755 105.579 55.4603 105.579 55.1656C105.579 54.9402 105.421 54.8276 105.105 54.8276C104.508 54.8276 102.517 56.301 99.1301 59.2479C98.1124 60.1319 96.2611 62.1167 93.5763 65.2023C93.3131 65.497 92.4972 65.6443 91.1285 65.6443C90.3388 65.6443 89.944 65.5663 89.944 65.4103C89.944 65.2196 90.023 65.0203 90.1809 64.8123C90.3388 64.6043 90.4266 64.4482 90.4441 64.3442L98.051 56.1536C98.3493 55.8243 98.4984 55.5296 98.4984 55.2696C98.4984 55.0269 98.3405 54.9056 98.0246 54.9056C97.4982 54.9056 96.2085 55.781 94.1554 57.5317C92.1024 59.2825 91.1022 60.1579 91.1548 60.1579C90.9618 60.1579 90.8653 60.0539 90.8653 59.8459C90.8653 59.7592 92.6025 58.2165 96.0769 55.2176C97.0244 54.3855 97.9281 53.9695 98.7879 53.9695C100.051 53.9695 100.683 54.7062 100.683 56.1797C100.683 56.6997 100.508 57.1764 100.157 57.6098L103.157 55.1396C104.14 54.3075 105.044 53.8915 105.868 53.8915C107.132 53.8915 107.763 54.6455 107.763 56.1536C107.763 56.7257 107.535 57.2457 107.079 57.7138L101.525 63.5122C101.245 63.8242 101.104 64.1362 101.104 64.4482C101.104 64.6563 101.218 64.7603 101.446 64.7603C102.078 64.7603 103.385 63.8935 105.368 62.1601C107.369 60.4266 108.421 59.5599 108.527 59.5599C108.72 59.5599 108.816 59.6639 108.816 59.8719Z" fill="white"/>
<path d="M111.435 70.3767C111.435 70.3593 111.426 70.342 111.408 70.3247H111.382C110.452 70.8621 109.452 71.4688 108.381 72.1448C107.311 72.8382 106.249 73.5836 105.197 74.381C104.126 75.1784 103.108 76.0278 102.143 76.9292C101.161 77.8306 100.31 78.758 99.5902 79.7114C99.4674 79.85 99.2919 80.0667 99.0638 80.3614C98.8181 80.6734 98.5812 81.0115 98.3531 81.3755C98.125 81.7395 97.9232 82.1122 97.7477 82.4936C97.5723 82.8749 97.4845 83.2216 97.4845 83.5336C97.4845 84.0363 97.6775 84.2877 98.0636 84.2877C98.6953 84.2877 99.3358 84.0883 99.985 83.6896C100.634 83.291 101.363 82.6756 102.17 81.8435C102.977 81.0115 103.889 79.9454 104.907 78.6453C105.925 77.3625 107.118 75.8197 108.487 74.0169C108.978 73.3582 109.469 72.7082 109.961 72.0668C110.47 71.4428 110.961 70.8794 111.435 70.3767ZM120.568 54.0475C120.305 54.0475 119.954 54.1775 119.515 54.4375C119.094 54.6975 118.629 55.0442 118.12 55.4776C117.611 55.911 117.085 56.4137 116.541 56.9857C115.997 57.5578 115.471 58.1558 114.962 58.7798C114.488 59.3519 114.041 59.9413 113.619 60.548C113.198 61.1373 112.83 61.7007 112.514 62.2381C112.198 62.7755 111.944 63.2608 111.751 63.6942C111.575 64.1102 111.487 64.4222 111.487 64.6303C111.487 65.133 111.707 65.3843 112.145 65.3843C112.514 65.3843 112.996 65.2023 113.593 64.8383C114.207 64.4743 114.874 63.9889 115.593 63.3822C116.33 62.7581 117.076 62.0387 117.831 61.224C118.585 60.392 119.296 59.5079 119.963 58.5718C120.401 57.9651 120.752 57.3411 121.016 56.6997C121.279 56.0583 121.41 55.4863 121.41 54.9836C121.41 54.6889 121.34 54.4635 121.2 54.3075C121.077 54.1342 120.866 54.0475 120.568 54.0475ZM117.12 66.1644C123.139 61.8134 126.104 59.6379 126.017 59.6379C126.227 59.6379 126.333 59.7419 126.333 59.9499C126.333 60.0366 126.297 60.1146 126.227 60.1839L115.751 68.1405C115.05 68.9726 114.26 69.9693 113.383 71.1307C112.505 72.2922 111.575 73.4969 110.592 74.745C109.61 76.0104 108.583 77.2585 107.513 78.4893C106.442 79.72 105.372 80.8208 104.302 81.7915C103.214 82.7796 102.143 83.577 101.091 84.1837C100.02 84.7904 98.9936 85.0938 98.0109 85.0938C97.4494 85.0938 97.0107 84.9291 96.6949 84.5997C96.3615 84.2877 96.1948 83.8283 96.1948 83.2216C96.1948 82.4936 96.4755 81.6962 97.0371 80.8294C97.581 79.98 98.3005 79.1133 99.1954 78.2293C100.09 77.3452 101.117 76.4611 102.275 75.5771C103.416 74.693 104.582 73.8523 105.776 73.0549C106.951 72.2575 108.101 71.5208 109.224 70.8447C110.364 70.186 111.373 69.6226 112.251 69.1546C112.865 68.3745 113.461 67.6031 114.041 66.8404C114.637 66.095 115.26 65.3236 115.909 64.5263C116.067 64.3356 116.243 64.1189 116.436 63.8762C116.646 63.6335 116.857 63.3822 117.067 63.1222C117.278 62.8621 117.489 62.6021 117.699 62.3421C117.91 62.0647 118.103 61.8134 118.278 61.588C118.331 61.5534 118.357 61.5014 118.357 61.432C117.831 62.0387 117.269 62.6281 116.673 63.2002C116.094 63.7722 115.515 64.2836 114.935 64.7343C114.356 65.1676 113.804 65.5143 113.277 65.7743C112.751 66.0344 112.286 66.1644 111.882 66.1644C111.057 66.1644 110.461 65.913 110.092 65.4103C109.741 64.9076 109.566 64.3096 109.566 63.6162C109.566 62.9575 109.724 62.2901 110.04 61.614C110.356 60.9207 110.768 60.2446 111.277 59.5859C111.663 59.0832 112.093 58.5372 112.567 57.9478C113.04 57.3584 113.532 56.8557 114.041 56.4397C114.076 56.405 114.093 56.379 114.093 56.3617V56.3357C113.391 56.7517 112.716 57.2284 112.066 57.7658C111.417 58.2858 110.838 58.7885 110.329 59.2739C109.733 59.8459 109.171 60.4093 108.645 60.964H107.723C108.934 59.6639 110.057 58.5892 111.093 57.7398C112.128 56.8904 113.111 56.1883 114.041 55.6336C114.374 55.4256 114.769 55.2002 115.225 54.9576C115.681 54.6975 116.173 54.4549 116.699 54.2295C117.243 53.9868 117.813 53.7875 118.41 53.6315C119.024 53.4755 119.647 53.3974 120.279 53.3974C121.016 53.3974 121.516 53.5275 121.779 53.7875C122.042 54.0475 122.174 54.3942 122.174 54.8276C122.174 55.1569 122.112 55.5123 121.99 55.8936C121.867 56.2577 121.691 56.6477 121.463 57.0637C121.463 57.0984 121.472 57.1157 121.489 57.1157H121.516C121.867 56.5783 122.244 56.0236 122.648 55.4516C123.069 54.8622 123.507 54.2642 123.964 53.6575H126.859C125.982 54.8362 125.069 56.041 124.122 57.2717C123.718 57.8091 123.288 58.3811 122.832 58.9879C122.376 59.5772 121.902 60.1926 121.41 60.834C120.937 61.458 120.454 62.0907 119.963 62.7321C119.471 63.3735 118.989 64.0062 118.515 64.6303C118.357 64.8383 118.234 65.003 118.147 65.1243C118.076 65.2456 118.006 65.3583 117.936 65.4623C117.883 65.549 117.813 65.6443 117.725 65.7483C117.638 65.8524 117.506 65.991 117.331 66.1644H117.12Z" fill="white"/>
<path d="M141.322 55.8936C141.322 58.1645 137.979 60.0713 131.294 61.614C130.135 62.7928 129.556 63.7289 129.556 64.4222C129.556 65.0463 129.855 65.3583 130.451 65.3583C131.732 65.3583 133.452 64.5869 135.61 63.0441C138.541 60.9467 140.146 59.8286 140.427 59.6899C140.62 59.7419 140.717 59.8459 140.717 60.0019C140.717 60.1059 139.962 60.6693 138.453 61.6921C136.698 62.8881 135.821 63.4862 135.821 63.4862C133.82 65.029 132.031 65.8004 130.451 65.8004C128.732 65.8004 127.872 64.9596 127.872 63.2782C127.872 60.9727 129.635 58.5805 133.162 56.1016C131.723 57.003 129.574 58.3551 126.714 60.1579L126.529 60.2359C126.371 60.2186 126.293 60.1233 126.293 59.9499C126.293 59.8633 126.319 59.7766 126.371 59.6899C129.232 57.6271 131.978 56.0756 134.61 55.0356C134.926 54.9316 135.391 54.7669 136.005 54.5415C137.549 53.9175 138.681 53.6055 139.4 53.6055C140.681 53.6055 141.322 54.3682 141.322 55.8936ZM140.085 54.9836C140.085 54.4115 139.83 54.1255 139.321 54.1255C138.409 54.1255 135.944 56.353 131.925 60.808C132.364 60.808 133.004 60.6086 133.847 60.2099L135.584 59.3519C136.426 58.9532 137.33 58.3378 138.295 57.5057C139.488 56.4657 140.085 55.6249 140.085 54.9836Z" fill="white"/>
<path d="M153.021 53.5795C153.021 53.8221 152.837 54.1255 152.468 54.4895L146.704 60.626C146.09 61.25 145.476 61.8827 144.862 62.5241C144.037 63.4255 143.624 64.1362 143.624 64.6563C143.624 64.8989 143.818 65.0203 144.204 65.0203C144.765 65.0203 146.099 64.1276 148.204 62.3421C150.31 60.5566 151.442 59.6552 151.6 59.6379C151.793 59.6726 151.889 59.7766 151.889 59.9499C151.889 60.0019 151.845 60.0713 151.758 60.1579L146.336 64.5523C145.318 65.4017 144.414 65.8264 143.624 65.8264C142.993 65.8264 142.484 65.549 142.098 64.9943C141.764 64.5089 141.598 63.9455 141.598 63.3042C141.598 62.4548 142.247 61.3887 143.546 60.1059L146.704 56.9857C146.353 57.1244 145.818 57.2717 145.098 57.4277C142.73 59.2132 141.475 60.1059 141.335 60.1059C141.142 60.1059 141.045 60.0019 141.045 59.7939C141.045 59.7939 142.203 58.9098 144.519 57.1417C144.133 56.847 143.94 56.483 143.94 56.0496C143.94 55.5296 144.116 55.0356 144.467 54.5675C144.818 54.0822 145.248 53.8395 145.757 53.8395C146.493 53.8395 146.862 54.2122 146.862 54.9576C146.862 55.2176 146.608 55.7203 146.099 56.4657C146.73 56.431 147.871 55.859 149.52 54.7495C151.187 53.6401 152.144 53.0854 152.389 53.0854C152.811 53.0854 153.021 53.2501 153.021 53.5795Z" fill="white"/>
<path d="M166.958 47.703C166.958 48.3964 166.405 48.8905 165.299 49.1851C164.334 49.0811 163.852 48.6738 163.852 47.9631C163.852 46.8363 164.387 46.2729 165.457 46.2729C166.458 46.2729 166.958 46.7496 166.958 47.703ZM162.483 54.4635C162.483 54.7929 162.316 55.1396 161.983 55.5036L155.297 62.7321C155.069 62.9748 154.955 63.2175 154.955 63.4602C154.955 63.7549 155.175 63.9022 155.613 63.9022C156.052 63.9022 156.499 63.7549 156.956 63.4602C158.008 62.5934 159.518 61.3454 161.483 59.7159C161.5 59.6986 161.571 59.6726 161.693 59.6379C161.886 59.6726 161.983 59.7766 161.983 59.9499C161.983 60.0713 160.956 60.964 158.903 62.6281C156.85 64.2749 155.587 65.2283 155.113 65.4883C154.727 65.731 154.174 65.8524 153.455 65.8524C152.332 65.8524 151.77 65.159 151.77 63.7722C151.77 63.1135 151.972 62.5501 152.376 62.0821L157.035 56.7777C153.999 59.0659 152.455 60.2099 152.402 60.2099C152.209 60.2099 152.113 60.1059 152.113 59.8979C152.113 59.8286 152.156 59.7679 152.244 59.7159L159.088 54.4895C159.333 54.3162 160 54.2295 161.088 54.2295H162.167C162.378 54.2295 162.483 54.3075 162.483 54.4635Z" fill="white"/>
<path d="M176.893 55.8936C176.893 58.1645 173.551 60.0713 166.865 61.614C165.707 62.7928 165.128 63.7289 165.128 64.4222C165.128 65.0463 165.426 65.3583 166.023 65.3583C167.304 65.3583 169.023 64.5869 171.182 63.0441C174.112 60.9467 175.718 59.8286 175.998 59.6899C176.191 59.7419 176.288 59.8459 176.288 60.0019C176.288 60.1059 175.533 60.6693 174.024 61.6921C172.27 62.8881 171.392 63.4862 171.392 63.4862C169.392 65.029 167.602 65.8004 166.023 65.8004C164.303 65.8004 163.443 64.9596 163.443 63.2782C163.443 60.9727 165.207 58.5805 168.734 56.1016C167.295 57.003 165.145 58.3551 162.285 60.1579L162.101 60.2359C161.943 60.2186 161.864 60.1233 161.864 59.9499C161.864 59.8633 161.89 59.7766 161.943 59.6899C164.803 57.6271 167.549 56.0756 170.181 55.0356C170.497 54.9316 170.962 54.7669 171.577 54.5415C173.121 53.9175 174.253 53.6055 174.972 53.6055C176.253 53.6055 176.893 54.3682 176.893 55.8936ZM175.656 54.9836C175.656 54.4115 175.402 54.1255 174.893 54.1255C173.981 54.1255 171.515 56.353 167.497 60.808C167.935 60.808 168.576 60.6086 169.418 60.2099L171.155 59.3519C171.998 58.9532 172.901 58.3378 173.866 57.5057C175.06 56.4657 175.656 55.6249 175.656 54.9836Z" fill="white"/>
</svg>
